PathFileType	4	(X/Y/Z)	C:\Users\dbl\Desktop\20210112(1)\20210112\bx_y_10_502.trc
DataRate	CameraRate	NumFrames	NumMarkers	Units	OrigDataRate	OrigDataStartFrame	OrigNumFrames
50.00	50.00	       5	43	mm	50.00	1	       499
Frame#	Time	Top.Head			R.Acromium			L.Acromium			Sternum			R.ASIS			L.ASIS			V.Sacral			R.Thigh.Upper			R.Thigh.Front			R.Thigh.Rear			R.Knee.Lat			R.Knee.Med			R.Shank.Upper			R.Shank.Front			R.Shank.Rear			R.Ankle.Lat			R.Midfoot.Lat			R.Toe.Lat			R.Toe.Tip			R.Toe.Med			R.Ankle.Med			R.Midfoot.Sup			R.Heel			L.Thigh.Upper			L.Thigh.Front			L.Thigh.Rear			L.Knee.Lat			L.Knee.Med			L.Shank.Upper			L.Shank.Front			L.Shank.Rear			L.Ankle.Lat			L.Midfoot.Lat			L.Toe.Lat			L.Toe.Tip			L.Toe.Med			L.Ankle.Med			L.Midfoot.Sup			L.Heel			origin1 front left			origin2 front right			origin 3 back right			origin 4 back leftt			
		X1	Y1	Z1	X2	Y2	Z2	X3	Y3	Z3	X4	Y4	Z4	X5	Y5	Z5	X6	Y6	Z6	X7	Y7	Z7	X8	Y8	Z8	X9	Y9	Z9	X10	Y10	Z10	X11	Y11	Z11	X12	Y12	Z12	X13	Y13	Z13	X14	Y14	Z14	X15	Y15	Z15	X16	Y16	Z16	X17	Y17	Z17	X18	Y18	Z18	X19	Y19	Z19	X20	Y20	Z20	X21	Y21	Z21	X22	Y22	Z22	X23	Y23	Z23	X24	Y24	Z24	X25	Y25	Z25	X26	Y26	Z26	X27	Y27	Z27	X28	Y28	Z28	X29	Y29	Z29	X30	Y30	Z30	X31	Y31	Z31	X32	Y32	Z32	X33	Y33	Z33	X34	Y34	Z34	X35	Y35	Z35	X36	Y36	Z36	X37	Y37	Z37	X38	Y38	Z38	X39	Y39	Z39	X40	Y40	Z40	X41	Y41	Z41	X42	Y42	Z42	X43	Y43	Z43	

1	0.000	-691.42877	128.21056	1852.48657	-720.17969	-61.47940	1549.43713	-728.56500	299.74326	1526.83264	-630.73187	113.58921	1438.64551	-602.69019	-1.03237	1051.49792	-591.54907	223.96042	1069.53601	-799.93103	100.99543	1055.88477	-654.28192	-64.30774	869.72217	-588.50641	-0.13596	805.99640	-696.71686	-44.84167	718.13513	-698.87061	-22.74341	616.91162	-687.73993	86.19464	576.99384	-712.04645	-20.18560	567.88892	-664.00244	24.51284	519.74432	-759.99841	-30.24549	489.12918	-766.20593	-2.79695	208.08505	-663.78247	-64.62401	164.97772	-623.27289	-77.10069	160.00900	-560.72583	-41.83167	163.59349	-602.51404	20.07578	165.61024	-716.49615	81.27943	215.08571	-674.41479	57.34739	155.33940	-794.34766	57.33791	174.52750	-643.15930	282.72101	876.82349	-587.14722	215.95464	817.19684	-692.23181	274.05963	748.13721	-721.38525	251.74225	645.03723	-691.56384	143.03929	575.10150	-728.28851	246.48915	577.40985	-675.85724	205.39233	532.71246	-770.52142	256.13953	503.76508	-771.34766	222.05289	205.37183	-666.43646	297.91510	160.67671	-628.70599	305.70395	161.79106	-560.63745	261.56604	165.51970	-594.51007	222.15355	173.51401	-711.72150	151.22188	216.39351	-675.35303	171.39482	157.12282	-796.52301	171.81956	183.93509	-528.00610	304.40421	146.80270	-517.83014	-72.53670	142.84929	-876.13934	-78.71100	141.67271	-882.42584	296.01208	144.62569	
2	0.020	-691.07745	128.12419	1852.46497	-719.84930	-61.60756	1549.37134	-728.25012	299.52734	1526.79834	-630.26862	113.35746	1438.67639	-602.59930	-1.01729	1051.48047	-591.48627	223.96281	1069.46851	-799.83038	100.96317	1055.85095	-654.22473	-64.26598	869.57733	-588.42633	-0.25046	805.93689	-696.72400	-44.91557	718.15302	-698.92365	-22.89755	616.81952	-687.67511	86.06097	577.09015	-712.04034	-20.18850	567.85199	-664.01605	24.50749	519.76721	-760.01428	-30.44341	489.12836	-766.26483	-2.79766	208.03056	-663.85077	-64.70455	164.99706	-623.36322	-77.07837	160.16147	-560.74866	-41.79084	163.63525	-602.55157	20.07945	165.65260	-716.46216	81.24889	215.12512	-674.42017	57.37380	155.42403	-794.31256	57.33114	174.62874	-643.08118	282.62799	876.73474	-587.06006	215.93752	817.11981	-692.12335	273.90744	748.14655	-721.41205	251.60497	645.05133	-691.34369	142.91800	575.19684	-728.14972	246.50433	577.48651	-675.88458	205.40399	532.76215	-770.52185	256.03052	503.60968	-771.33234	221.90109	205.39400	-666.34222	298.07840	160.63268	-628.71918	305.76135	161.76732	-560.70697	261.46811	165.33812	-594.52454	222.15057	173.50351	-711.69250	151.39548	216.28778	-675.41437	171.40884	157.03853	-796.57788	171.78452	183.91246	-528.07471	304.37964	146.74339	-517.83545	-72.49731	142.92708	-876.11572	-78.63139	141.64957	-882.43542	296.05264	144.65196	
3	0.040	-690.72131	128.00383	1852.43652	-719.50897	-61.74006	1549.30811	-727.92145	299.43576	1526.82922	-629.86774	113.13212	1438.67944	-602.49774	-1.03547	1051.44177	-591.40302	223.93848	1069.40015	-799.74194	100.90912	1055.82556	-654.21234	-64.28854	869.48126	-588.35028	-0.36470	805.88837	-696.72351	-45.01901	718.16113	-698.97205	-23.05306	616.77216	-687.64117	85.96652	577.15039	-712.04907	-20.19625	567.82623	-664.01849	24.48981	519.78741	-760.02759	-30.58055	489.11673	-766.30389	-2.79921	207.99657	-663.89655	-64.74795	165.05147	-623.45306	-77.07935	160.24678	-560.76233	-41.76375	163.65883	-602.56866	20.08762	165.66373	-716.41632	81.20011	215.14757	-674.42377	57.40629	155.48323	-794.30096	57.32408	174.68687	-642.97839	282.53387	876.68188	-586.98413	215.90982	817.06854	-692.03027	273.78137	748.12604	-721.39807	251.50244	645.05792	-691.18341	142.78799	575.29767	-728.04077	246.50548	577.54712	-675.89008	205.38686	532.78479	-770.50665	255.93695	503.52087	-771.32269	221.81516	205.40919	-666.27588	298.17703	160.58513	-628.72156	305.78604	161.76689	-560.76080	261.40717	165.24120	-594.54437	222.15697	173.49054	-711.67822	151.50279	216.22443	-675.46436	171.42319	156.95599	-796.60669	171.77345	183.90033	-528.11359	304.34680	146.68227	-517.81549	-72.49195	142.94904	-876.10004	-78.58087	141.64395	-882.44812	296.07901	144.66606	
4	0.060	-690.37964	127.84533	1852.40576	-719.18274	-61.86549	1549.26160	-727.58258	299.55545	1526.95959	-629.54517	112.92484	1438.66394	-602.38062	-1.10999	1051.37354	-591.29254	223.88275	1069.33911	-799.64478	100.82149	1055.80811	-654.24200	-64.37973	869.44989	-588.27856	-0.46700	805.85541	-696.71344	-45.14720	718.14233	-698.99829	-23.18567	616.76404	-687.63678	85.92330	577.17029	-712.07056	-20.21055	567.80463	-664.00299	24.45919	519.80420	-760.03333	-30.64803	489.09998	-766.32440	-2.80129	207.98035	-663.90918	-64.76248	165.11549	-623.50867	-77.09129	160.23587	-560.76697	-41.75266	163.66592	-602.57593	20.10435	165.64886	-716.35626	81.14055	215.14729	-674.41888	57.43538	155.50778	-794.31470	57.30854	174.69304	-642.83557	282.46381	876.69983	-586.91571	215.86523	817.04346	-691.94226	273.68304	748.06476	-721.34930	251.43866	645.05811	-691.09167	142.66344	575.40283	-727.97089	246.47855	577.58417	-675.87000	205.34052	532.76666	-770.47754	255.86473	503.51480	-771.32001	221.79587	205.40596	-666.26453	298.18961	160.57689	-628.71674	305.77509	161.78999	-560.78735	261.38354	165.22607	-594.56403	222.17766	173.48041	-711.68658	151.53078	216.20143	-675.48462	171.43529	156.90050	-796.61139	171.78337	183.91161	-528.11548	304.32208	146.63400	-517.78809	-72.49235	142.90402	-876.09265	-78.56583	141.64896	-882.46698	296.08932	144.66394	
5	0.080	-690.07684	127.66325	1852.38757	-718.90558	-61.97448	1549.24182	-727.26721	299.84164	1527.15454	-629.27930	112.75703	1438.64526	-602.23242	-1.24206	1051.29187	-591.15985	223.80666	1069.29602	-799.50775	100.70347	1055.80457	-654.25940	-64.50426	869.46820	-588.19843	-0.55346	805.83362	-696.69702	-45.26789	718.08423	-698.98511	-23.27124	616.76001	-687.64716	85.91078	577.16510	-712.08881	-20.22829	567.78046	-663.96246	24.42297	519.82947	-760.03064	-30.67639	489.08691	-766.33716	-2.80368	207.96761	-663.89783	-64.77917	165.13765	-623.50964	-77.09494	160.15337	-560.76587	-41.74964	163.66130	-602.58875	20.11980	165.63786	-716.29657	81.10030	215.14383	-674.40186	57.44518	155.50783	-794.33148	57.28239	174.67261	-642.66760	282.44064	876.79260	-586.83997	215.79718	817.02228	-691.84314	273.61310	747.99292	-721.29449	251.40050	645.05859	-691.05231	142.58331	575.47998	-727.93292	246.42194	577.59180	-675.83051	205.28296	532.72314	-770.43060	255.80400	503.54953	-771.31915	221.80254	205.38194	-666.31116	298.14322	160.62752	-628.71509	305.75220	161.81311	-560.78937	261.38071	165.22308	-594.57300	222.20151	173.48077	-711.70959	151.50148	216.20233	-675.47015	171.44098	156.89673	-796.60870	171.79626	183.93619	-528.10034	304.32767	146.61693	-517.78577	-72.45320	142.82782	-876.08936	-78.57778	141.64407	-882.48846	296.09842	144.65909	
